<?xml version="1.0" encoding="UTF-8"?>
<svg version="1.1" xmlns="http://www.w3.org/2000/svg" width="230" height="225">
<path d="M0 0 C16.94589553 15.03700072 28.71992557 32.25330194 36.00048828 53.75488281 C36.23920654 54.45895264 36.4779248 55.16302246 36.72387695 55.88842773 C40.15330718 66.58105631 40.98818602 76.93295826 40.93798828 88.12988281 C40.93550079 88.79323639 40.93301331 89.45658997 40.93045044 90.14004517 C40.7688504 118.00870658 31.71057118 144.72559817 12.62548828 165.44238281 C11.87356201 166.26585205 11.87356201 166.26585205 11.10644531 167.10595703 C2.81970179 176.0863592 -5.8563091 183.23898312 -16.37451172 189.44238281 C-16.96232422 189.80509277 -17.55013672 190.16780273 -18.15576172 190.54150391 C-27.52671945 196.2650046 -34.66761054 197.38710939 -45.37451172 196.44238281 C-47.0837273 193.02395164 -46.55433819 189.10448232 -46.58544922 185.34082031 C-46.61353552 183.46971808 -46.64220008 181.59862445 -46.67138672 179.72753906 C-46.71251578 176.77848717 -46.7494021 173.8295929 -46.77587891 170.88037109 C-46.80365311 168.03351545 -46.84954317 165.18739029 -46.89794922 162.34082031 C-46.90282852 161.0341188 -46.90282852 161.0341188 -46.9078064 159.70101929 C-47.0612621 151.97739306 -49.09304168 145.96652764 -53.37451172 139.44238281 C-52.57529297 139.27222656 -51.77607422 139.10207031 -50.95263672 138.92675781 C-36.38314992 135.71189453 -20.87650477 131.92539329 -11.37451172 119.44238281 C-2.43758461 105.10957519 -0.11668026 88.23676107 -3.03076172 71.72363281 C-4.61712021 65.97992104 -6.83647524 61.56622583 -10.24951172 56.69238281 C-13.38352145 52.08432613 -13.38352145 52.08432613 -13.34326172 49.21582031 C-12.94172773 47.76290129 -12.49476196 46.32190456 -12.00732422 44.89550781 C-10.16660522 37.75988107 -11.98161666 29.3020153 -14.37451172 22.44238281 C-23.68539172 22.90792681 -31.91958507 25.83533485 -39.49951172 31.31738281 C-44.22596918 34.38813624 -48.03315957 33.39520214 -53.37451172 32.44238281 C-68.0138476 30.23123312 -82.85570238 29.37213027 -97.36669922 33.04003906 C-102.69717079 34.10820749 -105.34034595 33.15702966 -109.87451172 30.19238281 C-117.54749075 25.5070285 -125.57930997 23.09452016 -134.37451172 21.44238281 C-136.78725035 30.791745 -137.37193393 40.47512661 -135.62451172 50.00488281 C-135.37451172 53.44238281 -135.37451172 53.44238281 -137.06201172 55.94238281 C-138.20669922 57.17988281 -138.20669922 57.17988281 -139.37451172 58.44238281 C-147.86596 73.0208908 -147.34583361 88.5925824 -143.62841797 104.66894531 C-140.5428265 115.28337998 -134.56078832 123.96399807 -125.19482422 129.95019531 C-115.52831908 135.06460662 -105.04353824 137.44802071 -94.37451172 139.44238281 C-94.70064453 139.92707031 -95.02677734 140.41175781 -95.36279297 140.91113281 C-97.68484765 144.4729866 -99.54252778 147.66328316 -100.74951172 151.75488281 C-101.90282708 154.96273811 -102.29668452 155.38939408 -105.31201172 157.44238281 C-111.6995068 159.51290558 -119.4151008 159.67480704 -125.62451172 157.00488281 C-131.20287483 153.74119319 -135.02572995 148.38400613 -138.99951172 143.40722656 C-142.09711496 139.60782259 -144.59131542 137.06866956 -149.37451172 135.44238281 C-152.09677607 135.22539073 -154.63511578 135.30068992 -157.37451172 135.44238281 C-156.22692485 138.88514343 -155.67904483 139.08738887 -152.74951172 140.94238281 C-146.22841924 145.64037417 -142.6166517 152.63693051 -139.31201172 159.81738281 C-136.95316229 164.7157595 -133.69013276 167.33970613 -128.74951172 169.69238281 C-119.82294132 171.67606512 -111.40485852 171.39214881 -102.37451172 170.44238281 C-102.34564421 174.58820168 -102.32775844 178.73399498 -102.31201172 182.87988281 C-102.30363281 184.06388672 -102.29525391 185.24789062 -102.28662109 186.46777344 C-102.28339844 187.59248047 -102.28017578 188.7171875 -102.27685547 189.87597656 C-102.27161865 190.91810303 -102.26638184 191.96022949 -102.26098633 193.03393555 C-102.37451172 195.44238281 -102.37451172 195.44238281 -103.37451172 196.44238281 C-115.41557688 198.19874871 -123.28900667 194.38557835 -133.37451172 188.44238281 C-134.37611328 187.88035156 -135.37771484 187.31832031 -136.40966797 186.73925781 C-143.96330855 182.2614162 -150.09229541 176.50401568 -156.37451172 170.44238281 C-157.10669922 169.77335938 -157.83888672 169.10433594 -158.59326172 168.41503906 C-171.23123464 156.55440178 -179.25618977 140.35323133 -184.74951172 124.12988281 C-184.98822998 123.42581299 -185.22694824 122.72174316 -185.47290039 121.99633789 C-188.90233062 111.30370932 -189.73720946 100.95180736 -189.68701172 89.75488281 C-189.68452423 89.09152924 -189.68203674 88.42817566 -189.67947388 87.74472046 C-189.51784061 59.87032838 -180.4571565 33.16750875 -161.37451172 12.44238281 C-160.90029785 11.92579102 -160.42608398 11.40919922 -159.9375 10.87695312 C-118.69589147 -33.54114235 -46.83414587 -40.27707338 0 0 Z " fill="#FFFFFF" transform="translate(189.37451171875,28.5576171875)"/>
</svg>
